<?xml version="1.0" standalone="no"?><!DOCTYPE svg PUBLIC "-//W3C//DTD SVG 1.1//EN" "http://www.w3.org/Graphics/SVG/1.1/DTD/svg11.dtd"><svg t="1543030538216" class="icon" style="" viewBox="0 0 1024 1024" version="1.1" xmlns="http://www.w3.org/2000/svg" p-id="6027" xmlns:xlink="http://www.w3.org/1999/xlink" width="200" height="200"><defs><style type="text/css"></style></defs><path d="M323.584 669.696v197.12c0 16.384-13.312 29.696-29.696 29.696H199.68c-16.384 0-29.696-13.312-29.696-29.696v-197.12c0-16.384 13.312-29.696 29.696-29.696h94.72c16.384 0 29.184 13.312 29.184 29.696zM586.24 534.528v338.944c0 12.288-10.24 22.528-22.528 22.528H455.168c-12.288 0-22.528-10.24-22.528-22.528v-338.944c0-12.288 10.24-22.528 22.528-22.528h108.544c12.288 0 22.528 10.24 22.528 22.528zM848.896 409.088v462.336c0 13.824-11.264 25.088-25.088 25.088h-103.936c-13.824 0-25.088-11.264-25.088-25.088V409.088c0-13.824 11.264-25.088 25.088-25.088h103.936c13.824 0 25.088 11.264 25.088 25.088z" fill="#ffffff" p-id="6028"></path><path d="M907.264 1024H116.736c-56.32 0-102.4-46.08-102.4-102.4V153.6C14.336 69.12 133.12 0 217.6 0h563.2c14.336 0 25.6 11.264 25.6 25.6s-11.264 25.6-25.6 25.6h-563.2C158.72 51.2 61.952 100.864 66.048 160.768 69.632 215.04 166.912 256 221.184 256h559.616c14.336 0 25.6 11.264 25.6 25.6s-11.264 25.6-25.6 25.6h-563.2c-39.424 0-124.928-14.848-152.064-39.424V921.6c0 28.16 23.04 51.2 51.2 51.2h790.528c28.16 0 51.2-23.04 51.2-51.2V230.4c0-28.16-23.04-51.2-51.2-51.2H226.816c-11.776 0-21.504-9.216-23.04-20.992v-0.512c-2.048-15.872 9.728-29.696 25.088-29.696h678.4c56.32 0 102.4 46.08 102.4 102.4v691.2c0 56.32-46.08 102.4-102.4 102.4z" fill="#0b4398" p-id="6029"></path></svg>