<?xml version="1.0" standalone="no"?><!DOCTYPE svg PUBLIC "-//W3C//DTD SVG 1.1//EN" "http://www.w3.org/Graphics/SVG/1.1/DTD/svg11.dtd"><svg t="1543030409936" class="icon" style="" viewBox="0 0 1024 1024" version="1.1" xmlns="http://www.w3.org/2000/svg" p-id="5217" xmlns:xlink="http://www.w3.org/1999/xlink" width="200" height="200"><defs><style type="text/css"></style></defs><path d="M866.959 228.605h-711.835c-31.732 0-57.549 25.815-57.549 57.548v322.274c0 31.732 25.816 57.549 57.549 57.549h711.835c31.732 0 57.549-25.817 57.549-57.549v-322.275c0-31.732-25.816-57.547-57.549-57.547zM880.24 608.426c0 7.323-5.958 13.281-13.281 13.281h-62.861v-94.734c0-12.225-9.909-22.134-22.134-22.134-12.224 0-22.134 9.909-22.134 22.134v94.734h-65.516v-62.861c0-12.225-9.91-22.134-22.135-22.134-12.224 0-22.134 9.909-22.134 22.134v62.861h-65.516v-62.861c0-12.225-9.91-22.134-22.135-22.134-12.224 0-22.134 9.909-22.134 22.134v62.861h-65.516v-62.861c0-12.225-9.911-22.134-22.135-22.134s-22.134 9.909-22.134 22.134v62.861h-65.516v-62.861c0-12.225-9.911-22.134-22.135-22.134s-22.134 9.909-22.134 22.134v62.861h-65.516v-94.734c0-12.225-9.91-22.134-22.135-22.134-12.224 0-22.134 9.909-22.134 22.134v94.734h-55.778c-7.323 0-13.28-5.958-13.28-13.281v-322.274c0-7.323 5.958-13.28 13.28-13.28h711.835c7.323 0 13.281 5.957 13.281 13.28v322.274h-0.003zM789.048 738.576h-556.012c-12.224 0-22.134 9.909-22.134 22.134s9.91 22.134 22.134 22.134h556.012c12.224 0 22.134-9.909 22.134-22.134 0-12.226-9.91-22.134-22.134-22.134z" p-id="5218" fill="#0b4398"></path></svg>