<?xml version="1.0" standalone="no"?><!DOCTYPE svg PUBLIC "-//W3C//DTD SVG 1.1//EN" "http://www.w3.org/Graphics/SVG/1.1/DTD/svg11.dtd"><svg t="1543030153069" class="icon" style="" viewBox="0 0 1024 1024" version="1.1" xmlns="http://www.w3.org/2000/svg" p-id="3626" xmlns:xlink="http://www.w3.org/1999/xlink" width="200" height="200"><defs><style type="text/css"></style></defs><path d="M211.69239 1023.796868a30.876064 30.876064 0 0 1-10.359732-1.828188 30.063536 30.063536 0 0 1-20.3132-25.797764l-8.12528-77.596425a52.408056 52.408056 0 0 0-46.923493-46.517228l-77.799556-7.719016A30.876064 30.876064 0 0 1 29.279853 812.742718l184.443857-185.865782 21.531992 21.531993L51.014977 833.055918l77.799556 8.328412A83.080989 83.080989 0 0 1 203.160846 915.324379l8.12528 77.596425 229.132898-229.945426 21.531993 21.531992-228.523503 230.148558a29.860404 29.860404 0 0 1-21.735124 9.14094zM804.22844 1024a31.079196 31.079196 0 0 1-22.750785-10.1566L563.313885 773.944506l22.547653-20.313201 218.16377 239.695763 12.18792-77.393293A83.284121 83.284121 0 0 1 893.809653 845.44697l78.002688-4.06264-175.912313-194.397325 22.547652-20.313201L995.375653 820.05547a30.876064 30.876064 0 0 1-20.3132 51.595529l-78.002688 4.265772a52.611188 52.611188 0 0 0-48.751681 44.485908l-11.578524 77.190161A30.672932 30.672932 0 0 1 812.556852 1022.578076a28.641612 28.641612 0 0 1-8.328412 1.421924z" fill="#0b4398" p-id="3627"></path><path d="M516.187261 788.976274a394.482348 394.482348 0 1 1 394.482348-394.279216 394.888612 394.888612 0 0 1-394.482348 394.279216z m0-758.291763a364.012547 364.012547 0 1 0 364.012547 364.012547A364.215679 364.215679 0 0 0 516.187261 30.684511z" fill="#0b4398" p-id="3628"></path><path d="M516.187261 606.157472a211.663546 211.663546 0 1 1 211.663546-211.460414 211.663546 211.663546 0 0 1-211.663546 211.460414z m0-392.65416a181.193746 181.193746 0 1 0 181.193746 181.193746 181.396878 181.396878 0 0 0-181.193746-181.193746z" fill="#0b4398" p-id="3629"></path></svg>