<?xml version="1.0" standalone="no"?><!DOCTYPE svg PUBLIC "-//W3C//DTD SVG 1.1//EN" "http://www.w3.org/Graphics/SVG/1.1/DTD/svg11.dtd"><svg t="1545877679017" class="icon" style="" viewBox="0 0 1024 1024" version="1.1" xmlns="http://www.w3.org/2000/svg" p-id="3530" xmlns:xlink="http://www.w3.org/1999/xlink" width="200" height="200"><defs><style type="text/css"></style></defs><path d="M130.191154 709.703781h763.616668c17.505699 0 31.702026-14.196327 31.702026-31.702026V113.592105c0-17.505699-14.196327-31.702026-31.702026-31.702026H130.191154c-17.505699 0-31.702026 14.196327-31.702026 31.702026v564.40965c0.001023 17.505699 14.196327 31.702026 31.702026 31.702026z m31.702026-564.40965h700.212616v501.005598H161.89318V145.294131zM927.006945 745.903238H96.992031c-17.505699 0-31.702026 14.196327-31.702026 31.702026s14.196327 31.702026 31.702026 31.702026h135.796826l-61.558008 82.080413c-10.503215 14.004969-7.66661 33.874505 6.343476 44.38386a31.547507 31.547507 0 0 0 18.997679 6.338358c9.636474 0 19.155269-4.379751 25.38618-12.681833l90.086762-120.120798h399.908062l90.086761 120.120798c6.230911 8.303106 15.749706 12.681834 25.38618 12.681833a31.587416 31.587416 0 0 0 18.99768-6.338358c14.010085-10.509355 16.847713-30.378891 6.343475-44.38386l-61.558008-82.080413H927.006945c17.505699 0 31.702026-14.196327 31.702026-31.702026s-14.196327-31.702026-31.702026-31.702026z" p-id="3531" fill="#0b4398"></path><path d="M683.816181 290.378483c-6.242168-6.242168-14.775518-9.586332-23.630187-9.259897a31.699979 31.699979 0 0 0-22.853497 11.04966L460.411041 498.575246l-75.399247-75.393107c-12.372795-12.372795-32.456203-12.372795-44.828998 0l-99.603509 99.597368c-12.384052 12.384052-12.384052 32.456203-0.005116 44.834115 12.377912 12.377912 32.456203 12.384052 44.834114 0.005116l77.18901-77.183893 77.18901 77.183893a31.69384 31.69384 0 0 0 23.630187 9.259898 31.699979 31.699979 0 0 0 22.853497-11.04966l176.921455-206.405977 75.399248 75.393108c12.372795 12.372795 32.451086 12.377912 44.834114-0.005117 12.377912-12.377912 12.377912-32.451086-0.005117-44.834114l-99.603508-99.598393z" p-id="3532" fill="#0b4398"></path></svg>