<?xml version="1.0" standalone="no"?><!DOCTYPE svg PUBLIC "-//W3C//DTD SVG 1.1//EN" "http://www.w3.org/Graphics/SVG/1.1/DTD/svg11.dtd"><svg t="1551684666746" class="icon" style="" viewBox="0 0 1024 1024" version="1.1" xmlns="http://www.w3.org/2000/svg" p-id="7172" xmlns:xlink="http://www.w3.org/1999/xlink" width="200" height="200"><defs><style type="text/css"></style></defs><path d="M510.92446 769.2c-12.4 0-24.8-3.1-35.8-9.1-0.2-0.1-0.4-0.2-0.7-0.4L17.02446 498.5c-16.2-9.2-21.8-29.8-12.6-46 9.2-16.2 29.8-21.8 46-12.6l457 260.9c2.2 1.1 4.7 1.1 6.9 0l457-260.9c16.2-9.2 36.8-3.6 46 12.6 9.2 16.2 3.6 36.8-12.6 46L547.32446 759.7c-0.2 0.1-0.4 0.3-0.7 0.4-11 5.9-23.3 9.1-35.7 9.1z" fill="#222222" p-id="7173"></path><path d="M514.42446 512.7c-15.4 0-33.6-4.6-47.6-12.8L19.02446 270.9c-11.7-6-18.8-18.1-18.3-31.2 0.5-13.1 8.5-24.7 20.5-29.8l466.7-197.6c0.7-0.3 1.5-0.6 2.2-0.8 17-5.8 44.8-1.1 66.8 11.3l443.3 190.4c12 5.2 20 16.9 20.4 30 0.4 13.1-6.8 25.2-18.6 31.1L535.92446 508.4c-1.3 0.6-2.6 1.2-4 1.7-4.9 1.8-11 2.6-17.5 2.6zM114.02446 243.7l384.3 196.6c0.7 0.4 1.4 0.7 2 1.1 3.2 1.9 8.1 3.2 11.4 3.6L907.02446 246.3 528.52446 83.9c-1.4-0.6-2.7-1.2-3.9-2-6-3.6-12.1-5-15.5-5.4L114.02446 243.7zM513.12446 1020c-12.4 0-24.8-3.1-35.8-9.1-0.2-0.1-0.4-0.2-0.7-0.4L19.32446 749.3c-16.2-9.2-21.8-29.8-12.6-46 9.2-16.2 29.8-21.8 46-12.6l457 260.9c2.2 1.1 4.7 1.1 6.9 0l457-260.9c16.2-9.2 36.8-3.6 46 12.6 9.2 16.2 3.6 36.8-12.6 46l-457.4 261.2c-0.2 0.1-0.4 0.3-0.7 0.4-11 5.9-23.4 9.1-35.8 9.1z" fill="#222222" p-id="7174"></path></svg>