<?xml version="1.0" standalone="no"?><!DOCTYPE svg PUBLIC "-//W3C//DTD SVG 1.1//EN" "http://www.w3.org/Graphics/SVG/1.1/DTD/svg11.dtd"><svg t="1551684821050" class="icon" style="" viewBox="0 0 1024 1024" version="1.1" xmlns="http://www.w3.org/2000/svg" p-id="10515" xmlns:xlink="http://www.w3.org/1999/xlink" width="200" height="200"><defs><style type="text/css"></style></defs><path d="M55.92342 384.8c-19.1 17.3-38.9 35.4-49 59.3-11.1 26.3-8.7 58.1 6.1 82.4 13.4 21.9 36.5 37.1 61.4 41 4.8 0.7 8.4 4.9 8.4 9.9v366.2c0 44.2 35.1 80 78.3 80h185c43.3 0 78.3-35.8 78.3-80V836.1c0-27.6 21.9-50 49-50h77.2c27 0 49 22.4 49 50v107.5c0 44.2 35.1 80 78.3 80h185c43.3 0 78.3-35.8 78.3-80V577.4c0-5 3.6-9.1 8.4-9.9 24.9-3.8 48-19.1 61.4-41 14.8-24.3 17.2-56.1 6.1-82.4-10.1-24-29.8-42-48.9-59.3L565.72342 20.6C535.22342-7 488.82342-7 458.32342 20.6L55.92342 384.8z m897.2 103.9c-4.6 8.8-13.3 9-21.2 9l-39.7-0.1c-10.8 0-19.6 8.9-19.6 20v386c0 27.6-21.9 50-49 50H716.92342c-27 0-49-22.4-49-50V796.1c0-44.2-35.1-80-78.3-80H434.02342c-43.3 0-78.3 35.8-78.3 80v107.5c0 27.6-21.9 50-49 50H200.02342c-27 0-49-22.4-49-50v-386c0-11.1-8.8-20-19.6-20l-39.4 0.1c-7.9 0-16.5-0.2-21.2-9-2.1-4.1-2.6-8.9-1.7-13.4 2.2-10.8 10.3-18.2 18.1-25.2l122.1-110.4 122.1-110.4 122.1-110.4c7.9-7.2 16.3-14.8 24.8-22.5 19-17.2 48-17.2 67.1 0 8.5 7.7 16.9 15.3 24.8 22.5l122.1 110.4 122.1 110.4c40.7 36.8 81.6 73.5 122.3 110.3 7.8 7 15.8 14.5 18.1 25.2 1 4.6 0.5 9.4-1.7 13.5z" fill="#222222" p-id="10516"></path></svg>