<?xml version="1.0" standalone="no"?><!DOCTYPE svg PUBLIC "-//W3C//DTD SVG 1.1//EN" "http://www.w3.org/Graphics/SVG/1.1/DTD/svg11.dtd"><svg t="1553152923066" class="icon" style="" viewBox="0 0 1024 1024" version="1.1" xmlns="http://www.w3.org/2000/svg" p-id="9235" xmlns:xlink="http://www.w3.org/1999/xlink" width="200" height="200"><defs><style type="text/css"></style></defs><path d="M700.980939 582.448048l-54.107442-164.162409-50.099902 132.643949-81.73125-172.154913-70.668181 170.743807-67.496015-133.118081-43.27015 162.683571-63.499763-48.327553 33.86654 118.950578 428.976177 0 45.155387-129.099251L700.980939 582.448048zM719.855891 627.422814l-400.336372-0.304799-11.774267-38.562701 41.40749 27.273854 33.979429-133.219681 61.975769 117.697516 70.668181-157.20848 81.24583 160.978955 50.675633-115.823568 45.042499 132.54235 45.076365-38.720744L719.855891 627.422814z" p-id="9236" fill="#0b4398"></path><path d="M315.263623 683.562249c0 0 13.106351 41.983221 17.001003 55.383082 4.233318 16.233362 24.496797 34.927692 50.732077 34.927692l282.221169 0c26.13368 0 37.59186-21.889074 41.475223-34.239072 3.883363-12.372576 14.969011-56.071702 14.969011-56.071702L315.263623 683.562249zM653.929026 751.295329c-30.863707 0-253.581365 0.135466-279.985977 0.135466-21.460098 0-26.573945-45.155387-26.573945-45.155387l340.426463-0.135466C687.795566 706.139942 684.804022 751.295329 653.929026 751.295329z" p-id="9237" fill="#0b4398"></path><path d="M778.10634 435.20762c18.705619 0 33.86654 15.17221 33.86654 33.86654 0 18.705619-15.160921 33.86654-33.86654 33.86654-18.69433 0-33.86654-15.160921-33.86654-33.86654C744.2398 450.37983 759.41201 435.20762 778.10634 435.20762z" p-id="9238" fill="#0b4398"></path><path d="M512.818441 277.163765c21.83263 0 39.510964 17.689623 39.510964 39.510964 0 21.83263-17.678334 39.510964-39.510964 39.510964-21.821341 0-39.510964-17.678334-39.510964-39.510964C473.307478 294.864677 490.997101 277.163765 512.818441 277.163765z" p-id="9239" fill="#0b4398"></path><path d="M258.819389 435.20762c18.705619 0 33.86654 15.17221 33.86654 33.86654 0 18.705619-15.160921 33.86654-33.86654 33.86654-18.69433 0-33.86654-15.160921-33.86654-33.86654C224.952849 450.37983 240.125059 435.20762 258.819389 435.20762z" p-id="9240" fill="#0b4398"></path></svg>