<?xml version="1.0" standalone="no"?><!DOCTYPE svg PUBLIC "-//W3C//DTD SVG 1.1//EN" "http://www.w3.org/Graphics/SVG/1.1/DTD/svg11.dtd"><svg t="1543030037785" class="icon" style="" viewBox="0 0 1024 1024" version="1.1" xmlns="http://www.w3.org/2000/svg" p-id="2782" xmlns:xlink="http://www.w3.org/1999/xlink" width="200" height="200"><defs><style type="text/css"></style></defs><path d="M624.2 800H283.6c-10.5 0-19 8.9-19 20s8.4 20 19 20h352.7v-19.4c-4.5-6.6-8.5-13.4-12.1-20.6zM605.1 700H283.6c-10.5 0-19 8.9-19 20s8.4 20 19 20h322.5c-1-8.1-1.6-16.3-1.6-24.6 0-5.2 0.2-10.3 0.6-15.4zM283.6 600c-10.5 0-19 8.9-19 20s8.4 20 19 20h336.3c6.4-14.7 14.5-28.1 24-40H283.6zM740.4 540H283.6c-10.5 0-19-8.9-19-20s8.5-20 19-20h456.9c10.5 0 19 8.9 19 20-0.1 11.1-8.5 20-19.1 20z" p-id="2783" fill="#0b4398"></path><path d="M188 920V104h648v448.3c14.2 4.2 27.6 10.1 40 17.6V93c0-16-13-29-29-29H177c-16 0-29 13-29 29v838c0 16 13 29 29 29h477.7v-40H188z" p-id="2784" fill="#0b4398"></path><path d="M744.6 386H279.4c-9.6 0-17.4-9-17.4-20V200c0-11 7.8-20 17.4-20h465.2c9.6 0 17.4 9 17.4 20v166c0 11-7.8 20-17.4 20z m-447.8-40h430.3V220H296.8v126zM950.2 715.4c0-88.2-71.8-160-160-160s-160 71.8-160 160c0 38.6 13.7 74 36.5 101.6v150.4c0 0.7 0 1.4 0.1 2.2 0.7 10.6 6.8 20 16.3 25 9.7 5.1 21 4.8 30.4-0.7l76.6-45.2 76.6 45.2c4.9 2.9 10.4 4.4 15.8 4.4 5 0 10-1.2 14.6-3.6 9.5-5 15.6-14.3 16.3-25.1 0-0.7 0.1-1.4 0.1-2.1V817c23-27.6 36.7-63 36.7-101.6z m-160-120c66.2 0 120 53.8 120 120s-53.8 120-120 120-120-53.8-120-120 53.8-120 120-120z m10.1 312.8c-6.3-3.7-14.1-3.7-20.3 0l-73.3 43.3v-99.6c24.3 14.9 52.9 23.6 83.5 23.6s59.2-8.6 83.5-23.6v99.6l-73.4-43.3z" p-id="2785" fill="#0b4398"></path></svg>