<?xml version="1.0" standalone="no"?><!DOCTYPE svg PUBLIC "-//W3C//DTD SVG 1.1//EN" "http://www.w3.org/Graphics/SVG/1.1/DTD/svg11.dtd"><svg t="1545877701920" class="icon" style="" viewBox="0 0 1024 1024" version="1.1" xmlns="http://www.w3.org/2000/svg" p-id="4334" xmlns:xlink="http://www.w3.org/1999/xlink" width="200" height="200"><defs><style type="text/css"></style></defs><path d="M367.7184 642.3552l-102.4-65.1264-83.7632 65.1264 27.9552-121.0368-93.0816-74.4448h121.0368l37.2736-121.0368 37.2736 121.0368h111.7184l-93.0816 83.7632 37.0688 111.7184M870.4 493.3632l-204.8 65.1264c-18.6368 9.3184-37.2736 0-46.592-27.9552 0-9.3184 9.3184-37.2736 27.9552-46.592l204.8-74.4448c27.9552 0 46.592 18.6368 46.592 37.2736s-9.3184 37.2736-27.9552 46.592z m0 148.992L674.9184 716.8c-18.6368 9.3184-37.2736-9.3184-46.592-27.9552-9.3184-18.6368 0-37.2736 18.6368-46.592l204.8-65.1264c18.6368-9.3184 37.2736 0 46.592 18.6368 0 18.6368-9.3184 46.592-27.9552 46.592z m0 0M870.4 325.8368l-204.8 74.4448c-18.6368 9.3184-37.2736-9.3184-46.592-27.9552-9.3184-18.6368 9.3184-37.2736 18.6368-46.592l214.1184-65.1264c18.6368-9.3184 37.2736 9.3184 46.592 27.9552 0 9.3184-9.3184 37.2736-27.9552 37.2736z m0 0" fill="#0b4398" p-id="4335"></path><path d="M1000.7552 0h-18.6368L516.7104 139.6736 51.2 0H32.5632C13.9264 9.3184 4.608 18.6368 4.608 37.2736v688.8448c0 27.9552 37.2736 74.4448 55.808 93.0816l428.2368 204.8h46.592l428.2368-204.8c27.9552-18.6368 55.808-74.4448 55.808-102.4V27.9552c0.1024-9.3184-9.216-27.9552-18.5344-27.9552z m-37.2736 102.4v595.7632c0 27.9552-27.9552 74.4448-46.4896 83.7632L544.5632 958.8736V195.4816L935.5264 74.4448h9.3184c18.6368 0 18.6368 18.6368 18.6368 27.9552z m-484.0448 93.0816v754.0736L116.3264 772.608c-18.6368-9.3184-55.808-46.592-55.808-65.1264V111.7184c0-18.6368 9.3184-27.9552 18.6368-27.9552h9.3184l390.9632 111.7184z m0 0" fill="#0b4398" p-id="4336"></path></svg>