<?xml version="1.0" standalone="no"?><!DOCTYPE svg PUBLIC "-//W3C//DTD SVG 1.1//EN" "http://www.w3.org/Graphics/SVG/1.1/DTD/svg11.dtd"><svg t="1545877600501" class="icon" style="" viewBox="0 0 1263 1024" version="1.1" xmlns="http://www.w3.org/2000/svg" p-id="2690" xmlns:xlink="http://www.w3.org/1999/xlink" width="246.6796875" height="200"><defs><style type="text/css"></style></defs><path d="M985.631762 1024H277.725062a70.638213 70.638213 0 0 1-50.818859-22.106203 72.670968 72.670968 0 0 1-20.327543-52.08933A2504.099256 2504.099256 0 0 1 233.766749 640.571712a71.908685 71.908685 0 0 1 70.892308-60.474442 70.130025 70.130025 0 0 1 25.409429 4.319603l300.593549 111.293301h3.55732l299.831265-111.547395a70.892308 70.892308 0 0 1 25.40943-4.319603 71.908685 71.908685 0 0 1 70.130024 59.20397 2502.066501 2502.066501 0 0 1 27.950373 309.486849 72.670968 72.670968 0 0 1-20.327544 52.08933 70.638213 70.638213 0 0 1-51.581141 23.376675z m-680.972705-393.083871a21.343921 21.343921 0 0 0-20.835732 18.040695 2447.436228 2447.436228 0 0 0-27.188089 301.86402 21.852109 21.852109 0 0 0 6.098263 16.00794 20.073449 20.073449 0 0 0 14.737469 6.352357h708.160794a20.073449 20.073449 0 0 0 14.737469-6.352357 21.852109 21.852109 0 0 0 6.098263-15.753846 2445.657568 2445.657568 0 0 0-27.18809-302.118114 20.835732 20.835732 0 0 0-27.696277-16.770224L650.48139 743.479901a50.818859 50.818859 0 0 1-19.311167 3.303226 48.786104 48.786104 0 0 1-20.327543-3.811415l-299.323077-111.039206a19.819355 19.819355 0 0 0-6.860546-1.016377z m327.019355 65.556328z m0 0h1.524566zM631.678412 537.409429a119.424318 119.424318 0 0 1-40.146898-6.606451L47.261538 331.847146a66.572705 66.572705 0 0 1 0-127.047146L591.023325 7.368734a125.522581 125.522581 0 0 1 80.293797 0l544.778163 196.923077a66.572705 66.572705 0 0 1 0 127.047147l-71.146402 25.409429-5.081885 2.795037-468.803971 170.243176a119.932506 119.932506 0 0 1-39.384615 7.622829z m0-485.320099a67.843176 67.843176 0 0 0-22.868486 3.55732L65.048139 252.061538a16.262035 16.262035 0 0 0 0 31.253598l543.761787 197.431266a74.703722 74.703722 0 0 0 45.736972 0l464.992556-168.972705 4.065509-1.77866 74.703722-26.679901a16.262035 16.262035 0 0 0 0-32.01588l-543.761787-196.668983a68.351365 68.351365 0 0 0-22.868486-3.811414zM1190.685856 516.827792a63.015385 63.015385 0 1 0 63.015385 63.015384 63.015385 63.015385 0 0 0-63.015385-63.015384z m0 0" fill="#0b4398" p-id="2691"></path><path d="M1190.685856 583.908685a25.409429 25.409429 0 0 1-25.409429-25.409429v-228.684864a25.409429 25.409429 0 0 1 50.818858 0v228.684864a25.409429 25.409429 0 0 1-25.409429 25.409429z" fill="#0b4398" p-id="2692"></path></svg>